<svg width="68" height="95" viewBox="0 0 68 95" fill="none" xmlns="http://www.w3.org/2000/svg">
<path fill-rule="evenodd" clip-rule="evenodd" d="M31.7049 0C27.0279 0 23.2309 3.797 23.2309 8.474C23.2309 13.151 27.0279 16.949 31.7049 16.949C36.3819 16.949 40.1789 13.151 40.1789 8.474C40.1789 3.797 36.3819 0 31.7049 0ZM31.7049 3C34.7259 3 37.1789 5.453 37.1789 8.474C37.1789 11.496 34.7259 13.949 31.7049 13.949C28.6839 13.949 26.2309 11.496 26.2309 8.474C26.2309 5.453 28.6839 3 31.7049 3ZM49.6619 22.667C46.3169 22.099 35.5579 20.465 27.5069 21.321C23.5889 21.738 20.2929 22.802 18.5109 24.641L1.68186 42.003C-0.611141 44.37 -0.552141 48.153 1.81386 50.446C4.18086 52.74 7.96386 52.68 10.2569 50.314L17.8799 42.45C18.4559 41.855 18.4409 40.905 17.8469 40.329C17.2519 39.752 16.3019 39.767 15.7259 40.362L8.10286 48.226C6.96186 49.404 5.07986 49.433 3.90186 48.292C2.72486 47.151 2.69586 45.269 3.83686 44.091L20.6649 26.729C22.0699 25.279 24.7359 24.633 27.8249 24.304C35.8459 23.451 46.6549 25.189 49.4659 25.677C49.8639 25.746 50.0989 25.79 50.1419 25.798C50.3289 25.834 50.4269 25.826 50.4269 25.826C50.9589 25.826 51.4519 25.544 51.7209 25.085L59.3259 12.135C60.1559 10.721 61.9779 10.247 63.3919 11.078C64.8049 11.908 65.2789 13.73 64.4489 15.144L55.5479 30.301C55.0149 31.209 54.0399 31.767 52.9869 31.767H42.7079C41.9239 31.767 41.2729 32.37 41.2119 33.151C40.0229 48.496 46.9319 86.293 47.0879 87.143C47.4519 89.421 45.8989 91.573 43.6159 91.945C41.3289 92.317 39.1699 90.763 38.7979 88.476C38.7949 88.462 38.7929 88.448 38.7899 88.434L33.7759 62.339C33.6329 61.596 32.9599 61.076 32.2049 61.125C31.4509 61.174 30.8509 61.777 30.8049 62.531L29.2629 88.015C29.1449 90.329 27.1699 92.112 24.8559 91.994C22.5419 91.876 20.7589 89.901 20.8769 87.587L22.6979 51.945C22.7339 51.25 23.3749 41.384 23.6289 37.477C23.6829 36.651 23.0559 35.937 22.2299 35.883C21.4039 35.829 20.6889 36.456 20.6359 37.282C20.3809 41.2 19.7379 51.095 19.7019 51.792L17.8809 87.434C17.6779 91.401 20.7349 94.787 24.7029 94.99C28.6669 95.192 32.0499 92.141 32.2589 88.179L33.0789 74.614L35.8409 88.982C36.4899 92.89 40.1849 95.543 44.0989 94.906C48.0199 94.267 50.6849 90.565 50.0459 86.644C50.0449 86.633 50.0429 86.623 50.0409 86.613C50.0409 86.613 43.4189 50.845 44.1209 34.767H52.9869C55.1039 34.767 57.0629 33.646 58.1349 31.82L67.0359 16.663C68.7049 13.821 67.7519 10.159 64.9109 8.491C62.0689 6.822 58.4069 7.774 56.7389 10.616L49.6619 22.667Z" fill="black"/>
</svg>
